<svg width="53" height="51" viewBox="0 0 53 51" fill="none" xmlns="http://www.w3.org/2000/svg">
<rect width="53" height="51" rx="12" fill="#D9D9D9" fill-opacity="0.2"/>
<path d="M17.9004 42.3999V26.0767C17.9004 24.2607 17.9004 23.3527 18.3162 22.5912C18.7319 21.8296 19.4957 21.3386 21.0232 20.3566L24.5618 18.0818C25.4547 17.5079 25.9011 17.2209 26.4004 17.2209C26.8997 17.2209 27.3461 17.5079 28.239 18.0818L31.7775 20.3566C33.3051 21.3386 34.0688 21.8296 34.4846 22.5912C34.9004 23.3527 34.9004 24.2607 34.9004 26.0767V42.3999" stroke="#141B34" stroke-width="2.55" stroke-linecap="round" stroke-linejoin="round"/>
<path d="M26.4004 27.0999H26.4157" stroke="#141B34" stroke-width="3.4" stroke-linecap="round" stroke-linejoin="round"/>
<path d="M41.7004 42.3999V32.4757C41.7004 28.58 39.5598 28.2647 34.9004 27.0999" stroke="#141B34" stroke-width="2.55" stroke-linecap="round" stroke-linejoin="round"/>
<path d="M11.1006 42.3999V32.4757C11.1006 28.58 13.2412 28.2647 17.9006 27.0999" stroke="#141B34" stroke-width="2.55" stroke-linecap="round" stroke-linejoin="round"/>
<path d="M9.40039 42.3999H43.4004" stroke="#141B34" stroke-width="2.55" stroke-linecap="round" stroke-linejoin="round"/>
<path d="M26.4004 42.3999V35.5999" stroke="#141B34" stroke-width="2.55" stroke-linecap="round"/>
<path d="M26.4004 16.8999V13.4697M26.4004 13.4697V10.0495C26.4004 9.24336 26.4004 8.84029 26.6493 8.58985C27.4307 7.80387 30.6504 9.66305 31.8748 10.417C32.9088 11.0537 33.2004 12.3254 33.2004 13.4697H26.4004Z" stroke="#141B34" stroke-width="2.55" stroke-linecap="round" stroke-linejoin="round"/>
</svg>
