<svg width="53" height="51" viewBox="0 0 53 51" fill="none" xmlns="http://www.w3.org/2000/svg">
<rect width="53" height="51" rx="12" fill="#D9D9D9" fill-opacity="0.2"/>
<path d="M21.1992 7.59998L21.1992 13" stroke="#141B34" stroke-width="2.7" stroke-linecap="round" stroke-linejoin="round"/>
<path d="M32 7.59998L32 13" stroke="#141B34" stroke-width="2.7" stroke-linecap="round" stroke-linejoin="round"/>
<path d="M26.5996 36.4L26.5996 43.6" stroke="#141B34" stroke-width="2.7" stroke-linecap="round" stroke-linejoin="round"/>
<path d="M27.8484 19.2999L24.0846 23.2147C23.6812 23.6342 23.9703 24.2378 24.6281 24.3495L28.5708 25.019C29.272 25.1381 29.5395 25.8063 29.0492 26.2143L24.3793 30.0999" stroke="#141B34" stroke-width="2.7" stroke-linecap="round" stroke-linejoin="round"/>
<path d="M30.7513 13L22.4476 13C18.5986 13 16.6741 13 15.6109 14.2559C14.5477 15.5119 14.8403 17.4395 15.4256 21.2948L16.3683 27.5047C17.3043 33.6705 19.914 36.4 26.5994 36.4C33.2848 36.4 35.8945 33.6705 36.8305 27.5047L37.7732 21.2948C38.3585 17.4395 38.6511 15.5119 37.5879 14.2559C36.5247 13 34.6002 13 30.7513 13Z" stroke="#141B34" stroke-width="2.7"/>
</svg>
