<svg width="53" height="51" viewBox="0 0 53 51" fill="none" xmlns="http://www.w3.org/2000/svg">
<rect width="53" height="51" rx="12" fill="#D9D9D9" fill-opacity="0.2"/>
<path d="M12 22.9999C13.1695 17.276 17.5038 12.6939 23.1093 11.1345C23.5798 11.0036 23.8151 10.9382 23.9418 11.0784C24.0685 11.2186 23.9752 11.4505 23.7885 11.9142L22.5 14.7499M30 10.9999C35.7239 12.1694 40.306 16.5037 41.8653 22.1092C41.9962 22.5797 42.0617 22.8149 41.9215 22.9417C41.7812 23.0684 41.5494 22.975 41.0857 22.7883L38.25 21.4999M42 28.9999C40.8305 34.7237 36.4962 39.3059 30.8907 40.8652C30.4202 40.9961 30.1849 41.0616 30.0582 40.9213C29.9315 40.7811 30.0248 40.5493 30.2115 40.0855L31.5 37.2499M24 40.9999C18.2761 39.8304 13.694 35.4961 12.1347 29.8906C12.0038 29.4201 11.9383 29.1848 12.0785 29.0581C12.2188 28.9314 12.4506 29.0247 12.9143 29.2114L15.75 30.4999" stroke="#141B34" stroke-width="2.25" stroke-linecap="round"/>
<path d="M26.9999 24.6483C25.0312 25.9986 22.648 28.6691 21.75 32.7499M23.0625 29.1551C19.9546 21.9641 26.2239 19.5389 30.9957 19.2692C31.5715 19.2367 31.8595 19.2204 32.0663 19.4302C32.2731 19.64 32.2611 19.9391 32.2373 20.5373C32.0393 25.5111 30.0563 32.3544 23.0625 29.1551Z" stroke="#141B34" stroke-width="2.25" stroke-linecap="round" stroke-linejoin="round"/>
</svg>
