<svg width="53" height="51" viewBox="0 0 53 51" fill="none" xmlns="http://www.w3.org/2000/svg">
<rect width="53" height="51" rx="12" fill="#D9D9D9" fill-opacity="0.2"/>
<path d="M40.6097 27.7064C38.5876 29.7282 34.7828 29.6496 28.949 29.6496C25.1958 29.6496 22.1527 26.602 22.1508 22.8489C22.1508 17.019 22.0722 13.2121 24.0943 11.1904C26.1164 9.1686 27.0094 9.25046 35.9669 9.25046C36.8326 9.24675 37.2683 10.2936 36.6562 10.9057L32.0442 15.5181C30.8735 16.6889 30.8703 18.587 32.0411 19.7576C33.2119 20.9282 35.1101 20.9283 36.2811 19.7579L40.8944 15.1465C41.5066 14.5346 42.5536 14.9702 42.5499 15.8357C42.5499 24.7918 42.6318 25.6847 40.6097 27.7064Z" stroke="#141B34" stroke-width="2.55"/>
<path d="M28.95 29.65L18.4583 40.1417C16.5806 42.0194 13.5361 42.0194 11.6583 40.1417C9.78056 38.2639 9.78056 35.2194 11.6583 33.3417L22.15 22.85" stroke="#141B34" stroke-width="2.55" stroke-linecap="round"/>
<path d="M15.3658 36.4501H15.3506" stroke="#141B34" stroke-width="3.4" stroke-linecap="round" stroke-linejoin="round"/>
</svg>
