<svg width="53" height="51" viewBox="0 0 53 51" fill="none" xmlns="http://www.w3.org/2000/svg">
<rect width="53" height="51" rx="12" fill="#D9D9D9" fill-opacity="0.2"/>
<path d="M26.3977 8.3999C21.5536 8.3999 18.4127 11.8322 14.698 13.0832C13.1876 13.5919 12.4324 13.8463 12.1268 14.2048C11.8212 14.5633 11.7317 15.0873 11.5527 16.1351C9.63732 27.3481 13.8238 37.7147 23.8081 41.7496C24.8809 42.1831 25.4172 42.3999 26.403 42.3999C27.3887 42.3999 27.925 42.1831 28.9977 41.7496C38.9814 37.7146 43.1639 27.3481 41.248 16.1351C41.0689 15.0871 40.9794 14.5631 40.6737 14.2045C40.368 13.846 39.6128 13.5918 38.1025 13.0834C34.3865 11.8324 31.242 8.3999 26.3977 8.3999Z" stroke="#141B34" stroke-width="2.55" stroke-linecap="round" stroke-linejoin="round"/>
<path d="M39.2018 14.4016C39.6997 13.9036 39.6997 13.0964 39.2018 12.5984C38.7038 12.1005 37.8966 12.1005 37.3986 12.5984L38.3002 13.5L39.2018 14.4016ZM15.2986 34.6984C14.8007 35.1964 14.8007 36.0036 15.2986 36.5016C15.7966 36.9995 16.6038 36.9995 17.1018 36.5016L16.2002 35.6L15.2986 34.6984ZM38.3002 13.5L37.3986 12.5984L15.2986 34.6984L16.2002 35.6L17.1018 36.5016L39.2018 14.4016L38.3002 13.5Z" fill="#141B34"/>
</svg>
